<?xml version="1.0" encoding="UTF-8" standalone="no"?>
<!DOCTYPE svg PUBLIC "-//W3C//DTD SVG 1.1//EN"
 "http://www.w3.org/Graphics/SVG/1.1/DTD/svg11.dtd">
<!-- Generated by graphviz version 2.26.3 (20100126.1600)
 -->
<!-- Title: models_diagram Pages: 1 -->
<svg width="2895pt" height="438pt"
 viewBox="0.00 0.00 2894.72 438.00" xmlns="http://www.w3.org/2000/svg" xmlns:xlink="http://www.w3.org/1999/xlink">
<g id="graph1" class="graph" transform="scale(1 1) rotate(0) translate(4 434)">
<title>models_diagram</title>
<polygon fill="white" stroke="white" points="-4,5 -4,-434 2891.72,-434 2891.72,5 -4,5"/>
<!-- _diagram_info -->
<g id="node1" class="node"><title>_diagram_info</title>
<text text-anchor="start" x="520.719" y="-413.8" font-family="Times Roman,serif" font-size="13.00">Models diagram</text>
<text text-anchor="start" x="520.719" y="-396.8" font-family="Times Roman,serif" font-size="13.00">Date: Dec 11 2012 &#45; 21:04</text>
<text text-anchor="start" x="520.719" y="-379.8" font-family="Times Roman,serif" font-size="13.00">Migration version: 104</text>
<text text-anchor="start" x="520.719" y="-362.8" font-family="Times Roman,serif" font-size="13.00">Generated by RailRoady 1.1.0</text>
<text text-anchor="start" x="520.719" y="-345.8" font-family="Times Roman,serif" font-size="13.00">http://railroady.prestonlee.com</text>
</g>
<!-- Resource -->
<g id="node2" class="node"><title>Resource</title>
<ellipse fill="none" stroke="black" cx="545.719" cy="-95" rx="55.8614" ry="18.3848"/>
<text text-anchor="middle" x="545.719" y="-91.4" font-family="Times Roman,serif" font-size="14.00">Resource</text>
</g>
<!-- Notification -->
<g id="node3" class="node"><title>Notification</title>
<ellipse fill="none" stroke="black" cx="490.719" cy="-187" rx="67.1751" ry="18.3848"/>
<text text-anchor="middle" x="490.719" y="-183.4" font-family="Times Roman,serif" font-size="14.00">Notification</text>
</g>
<!-- Article::States -->
<g id="node4" class="node"><title>Article::States</title>
<polygon fill="none" stroke="black" stroke-dasharray="1,5" points="974.719,-401 860.719,-401 860.719,-365 974.719,-365 974.719,-401"/>
<text text-anchor="middle" x="917.719" y="-379.4" font-family="Times Roman,serif" font-size="14.00">Article::States</text>
</g>
<!-- Category -->
<g id="node5" class="node"><title>Category</title>
<ellipse fill="none" stroke="black" cx="768.719" cy="-263" rx="56.0679" ry="18.3848"/>
<text text-anchor="middle" x="768.719" y="-259.4" font-family="Times Roman,serif" font-size="14.00">Category</text>
</g>
<!-- Category&#45;&gt;Category -->
<g id="edge2" class="edge"><title>Category&#45;&gt;Category</title>
<path fill="none" stroke="#8d0cb3" d="M828.64,-269.381C837.07,-268.341 842.719,-266.215 842.719,-263 842.719,-260.078 838.05,-258.054 830.868,-256.93"/>
<ellipse fill="none" stroke="#8d0cb3" cx="824.575" cy="-269.7" rx="4" ry="4"/>
<polygon fill="#8d0cb3" stroke="#8d0cb3" points="830.545,-256.9 820.999,-251.505 825.566,-256.443 820.587,-255.986 820.587,-255.986 820.587,-255.986 825.566,-256.443 820.176,-260.467 830.545,-256.9 830.545,-256.9"/>
<text text-anchor="middle" x="870.219" y="-259.4" font-family="Times Roman,serif" font-size="14.00">children</text>
</g>
<!-- Categorization -->
<g id="node14" class="node"><title>Categorization</title>
<ellipse fill="none" stroke="black" cx="924.719" cy="-95" rx="84.1457" ry="18.3848"/>
<text text-anchor="middle" x="924.719" y="-91.4" font-family="Times Roman,serif" font-size="14.00">Categorization</text>
</g>
<!-- Category&#45;&gt;Categorization -->
<g id="edge4" class="edge"><title>Category&#45;&gt;Categorization</title>
<path fill="none" stroke="#07803c" d="M790.984,-239.021C820.009,-207.765 870.587,-153.296 900.529,-121.05"/>
<ellipse fill="none" stroke="#07803c" cx="788.135" cy="-242.09" rx="4.00002" ry="4.00002"/>
<polygon fill="#07803c" stroke="#07803c" points="900.866,-120.687 910.969,-116.421 904.269,-117.023 907.671,-113.359 907.671,-113.359 907.671,-113.359 904.269,-117.023 904.373,-110.297 900.866,-120.687 900.866,-120.687"/>
</g>
<!-- Article -->
<g id="node22" class="node"><title>Article</title>
<ellipse fill="none" stroke="black" cx="618.719" cy="-187" rx="43.1335" ry="18.3848"/>
<text text-anchor="middle" x="618.719" y="-183.4" font-family="Times Roman,serif" font-size="14.00">Article</text>
</g>
<!-- Category&#45;&gt;Article -->
<g id="edge6" class="edge"><title>Category&#45;&gt;Article</title>
<path fill="none" stroke="#bdcf3d" d="M728.839,-242.794C706.229,-231.339 678.12,-217.097 655.96,-205.869"/>
<polygon fill="#bdcf3d" stroke="#bdcf3d" points="729.082,-242.917 735.968,-251.451 733.542,-245.177 738.002,-247.437 738.002,-247.437 738.002,-247.437 733.542,-245.177 740.036,-243.423 729.082,-242.917 729.082,-242.917"/>
<polygon fill="#bdcf3d" stroke="#bdcf3d" points="655.781,-205.778 648.895,-197.245 651.321,-203.519 646.861,-201.259 646.861,-201.259 646.861,-201.259 651.321,-203.519 644.827,-205.273 655.781,-205.778 655.781,-205.778"/>
</g>
<!-- Content -->
<g id="node6" class="node"><title>Content</title>
<ellipse fill="none" stroke="black" cx="791.719" cy="-383" rx="51.1176" ry="18.3848"/>
<text text-anchor="middle" x="791.719" y="-379.4" font-family="Times Roman,serif" font-size="14.00">Content</text>
</g>
<!-- Content&#45;&gt;Notification -->
<g id="edge8" class="edge"><title>Content&#45;&gt;Notification</title>
<path fill="none" stroke="#7c07fb" d="M768.238,-360.122C757.834,-351.239 744.96,-341.82 731.719,-336 686.768,-316.245 666.436,-340.352 622.719,-318 574.107,-293.146 532.121,-243.967 509.218,-213.444"/>
<ellipse fill="none" stroke="#7c07fb" cx="771.381" cy="-362.899" rx="4.00002" ry="4.00002"/>
<polygon fill="#7c07fb" stroke="#7c07fb" points="509.201,-213.421 506.899,-202.699 506.238,-209.393 503.275,-205.366 503.275,-205.366 503.275,-205.366 506.238,-209.393 499.65,-208.032 509.201,-213.421 509.201,-213.421"/>
</g>
<!-- Feedback -->
<g id="node8" class="node"><title>Feedback</title>
<ellipse fill="none" stroke="black" cx="219.719" cy="-95" rx="56.0679" ry="18.3848"/>
<text text-anchor="middle" x="219.719" y="-91.4" font-family="Times Roman,serif" font-size="14.00">Feedback</text>
</g>
<!-- Content&#45;&gt;Feedback -->
<g id="edge18" class="edge"><title>Content&#45;&gt;Feedback</title>
<path fill="none" stroke="black" d="M774.468,-365.34C763.284,-355.018 747.835,-342.733 731.719,-336 673.426,-311.647 651.586,-334.92 590.719,-318 412.415,-268.435 310.79,-305.027 209.719,-150 202.669,-139.187 205.644,-124.764 210.129,-113.401"/>
</g>
<!-- Trigger -->
<g id="node15" class="node"><title>Trigger</title>
<ellipse fill="none" stroke="black" cx="1071.72" cy="-95" rx="44.7575" ry="18.3848"/>
<text text-anchor="middle" x="1071.72" y="-91.4" font-family="Times Roman,serif" font-size="14.00">Trigger</text>
</g>
<!-- Content&#45;&gt;Trigger -->
<g id="edge16" class="edge"><title>Content&#45;&gt;Trigger</title>
<path fill="none" stroke="#2a7bdf" d="M819.646,-361.115C835.019,-348.798 854.261,-332.935 870.719,-318 887.475,-302.794 891.226,-298.491 906.719,-282 959.773,-225.527 1019.29,-156.623 1050.3,-120.267"/>
<ellipse fill="none" stroke="#2a7bdf" cx="816.441" cy="-363.67" rx="4.00002" ry="4.00002"/>
<polygon fill="#2a7bdf" stroke="#2a7bdf" points="1050.35,-120.21 1060.26,-115.514 1053.59,-116.403 1056.83,-112.597 1056.83,-112.597 1056.83,-112.597 1053.59,-116.403 1053.41,-109.679 1050.35,-120.21 1050.35,-120.21"/>
</g>
<!-- User -->
<g id="node16" class="node"><title>User</title>
<ellipse fill="none" stroke="black" cx="660.719" cy="-263" rx="33.9411" ry="18.3848"/>
<text text-anchor="middle" x="660.719" y="-259.4" font-family="Times Roman,serif" font-size="14.00">User</text>
</g>
<!-- Content&#45;&gt;User -->
<g id="edge10" class="edge"><title>Content&#45;&gt;User</title>
<path fill="none" stroke="#36cd74" d="M791.079,-354.057C789.158,-336.238 783.789,-314.171 769.719,-300 748.296,-278.424 732.371,-292.173 703.719,-282 701.296,-281.14 698.818,-280.204 696.336,-279.223"/>
<polygon fill="#36cd74" stroke="#36cd74" points="791.095,-354.259 787.378,-364.576 791.479,-359.244 791.864,-364.23 791.864,-364.23 791.864,-364.23 791.479,-359.244 796.351,-363.883 791.095,-354.259 791.095,-354.259"/>
<polygon fill="#36cd74" stroke="#36cd74" points="696.083,-279.119 688.568,-271.132 691.464,-277.204 686.845,-275.29 686.845,-275.29 686.845,-275.29 691.464,-277.204 685.122,-279.447 696.083,-279.119 696.083,-279.119"/>
<text text-anchor="middle" x="824.219" y="-305.4" font-family="Times Roman,serif" font-size="14.00">notify_users</text>
</g>
<!-- Redirect -->
<g id="node17" class="node"><title>Redirect</title>
<ellipse fill="none" stroke="black" cx="1092.72" cy="-263" rx="51.1176" ry="18.3848"/>
<text text-anchor="middle" x="1092.72" y="-259.4" font-family="Times Roman,serif" font-size="14.00">Redirect</text>
</g>
<!-- Content&#45;&gt;Redirect -->
<g id="edge14" class="edge"><title>Content&#45;&gt;Redirect</title>
<path fill="none" stroke="#56f051" d="M816.671,-358.824C826.8,-350.316 839.086,-341.509 851.719,-336 898.334,-315.671 915.87,-332.147 964.719,-318 995.722,-309.021 1029.19,-294.457 1054.12,-282.571"/>
<polygon fill="#56f051" stroke="#56f051" points="816.561,-358.921 806.076,-362.133 812.802,-362.218 809.044,-365.516 809.044,-365.516 809.044,-365.516 812.802,-362.218 812.012,-368.898 816.561,-358.921 816.561,-358.921"/>
<polygon fill="#56f051" stroke="#56f051" points="1054.23,-282.517 1065.19,-282.216 1058.73,-280.341 1063.23,-278.164 1063.23,-278.164 1063.23,-278.164 1058.73,-280.341 1061.28,-274.113 1054.23,-282.517 1054.23,-282.517"/>
</g>
<!-- Content&#45;&gt;Article -->
<g id="edge60" class="edge"><title>Content&#45;&gt;Article</title>
<path fill="none" stroke="black" d="M773.996,-365.596C762.752,-355.503 747.409,-343.368 731.719,-336 697.552,-319.956 681.157,-337.301 648.719,-318 630.573,-307.204 625.067,-301.795 617.719,-282 608.362,-256.795 611.326,-225.173 614.714,-205.524"/>
</g>
<!-- Page -->
<g id="node23" class="node"><title>Page</title>
<ellipse fill="none" stroke="black" cx="988.719" cy="-263" rx="34.8574" ry="18.3848"/>
<text text-anchor="middle" x="988.719" y="-259.4" font-family="Times Roman,serif" font-size="14.00">Page</text>
</g>
<!-- Content&#45;&gt;Page -->
<g id="edge62" class="edge"><title>Content&#45;&gt;Page</title>
<path fill="none" stroke="black" d="M809.411,-365.53C820.643,-355.412 835.985,-343.275 851.719,-336 887.953,-319.245 905.122,-337.919 939.719,-318 955.456,-308.939 968.811,-293.008 977.585,-280.616"/>
</g>
<!-- Redirection -->
<g id="node25" class="node"><title>Redirection</title>
<ellipse fill="none" stroke="black" cx="1151.72" cy="-187" rx="65.9683" ry="18.3848"/>
<text text-anchor="middle" x="1151.72" y="-183.4" font-family="Times Roman,serif" font-size="14.00">Redirection</text>
</g>
<!-- Content&#45;&gt;Redirection -->
<g id="edge12" class="edge"><title>Content&#45;&gt;Redirection</title>
<path fill="none" stroke="#088596" d="M814.837,-360.03C825.262,-351.038 838.248,-341.562 851.719,-336 977.345,-284.13 1068.57,-388.732 1152.72,-282 1167.31,-263.495 1165.3,-236.058 1160.68,-215.421"/>
<ellipse fill="none" stroke="#088596" cx="811.677" cy="-362.86" rx="4.00002" ry="4.00002"/>
<polygon fill="#088596" stroke="#088596" points="1160.65,-215.31 1162.54,-204.508 1159.42,-210.465 1158.18,-205.62 1158.18,-205.62 1158.18,-205.62 1159.42,-210.465 1153.82,-206.731 1160.65,-215.31 1160.65,-215.31"/>
</g>
<!-- TextFilter -->
<g id="node7" class="node"><title>TextFilter</title>
<ellipse fill="none" stroke="black" cx="1049.72" cy="-383" rx="56.7776" ry="18.3848"/>
<text text-anchor="middle" x="1049.72" y="-379.4" font-family="Times Roman,serif" font-size="14.00">TextFilter</text>
</g>
<!-- Trackback -->
<g id="node9" class="node"><title>Trackback</title>
<ellipse fill="none" stroke="black" cx="637.719" cy="-19" rx="58.8978" ry="18.3848"/>
<text text-anchor="middle" x="637.719" y="-15.4" font-family="Times Roman,serif" font-size="14.00">Trackback</text>
</g>
<!-- Feedback&#45;&gt;Trackback -->
<g id="edge20" class="edge"><title>Feedback&#45;&gt;Trackback</title>
<path fill="none" stroke="black" d="M260.431,-82.2591C268.436,-79.9925 276.806,-77.7881 284.719,-76 389.019,-52.4312 512.775,-34.7734 582.586,-25.7425"/>
</g>
<!-- Comment -->
<g id="node12" class="node"><title>Comment</title>
<ellipse fill="none" stroke="black" cx="219.719" cy="-19" rx="58.1882" ry="18.3848"/>
<text text-anchor="middle" x="219.719" y="-15.4" font-family="Times Roman,serif" font-size="14.00">Comment</text>
</g>
<!-- Feedback&#45;&gt;Comment -->
<g id="edge22" class="edge"><title>Feedback&#45;&gt;Comment</title>
<path fill="none" stroke="black" d="M219.719,-76.2135C219.719,-64.4331 219.719,-49.3096 219.719,-37.5704"/>
</g>
<!-- Feedback::States -->
<g id="node10" class="node"><title>Feedback::States</title>
<polygon fill="none" stroke="black" stroke-dasharray="1,5" points="1258.72,-401 1124.72,-401 1124.72,-365 1258.72,-365 1258.72,-401"/>
<text text-anchor="middle" x="1191.72" y="-379.4" font-family="Times Roman,serif" font-size="14.00">Feedback::States</text>
</g>
<!-- PostType -->
<g id="node11" class="node"><title>PostType</title>
<ellipse fill="none" stroke="black" cx="1330.72" cy="-383" rx="53.9477" ry="18.3848"/>
<text text-anchor="middle" x="1330.72" y="-379.4" font-family="Times Roman,serif" font-size="14.00">PostType</text>
</g>
<!-- BlogSweeper -->
<g id="node13" class="node"><title>BlogSweeper</title>
<polygon fill="none" stroke="black" points="1641.72,-281 1535.72,-281 1535.72,-245 1641.72,-245 1641.72,-281"/>
<text text-anchor="middle" x="1588.72" y="-259.4" font-family="Times Roman,serif" font-size="14.00">BlogSweeper</text>
</g>
<!-- User&#45;&gt;Notification -->
<g id="edge26" class="edge"><title>User&#45;&gt;Notification</title>
<path fill="none" stroke="#da5494" d="M626.645,-247.767C600.394,-236.031 563.877,-219.706 535.302,-206.932"/>
<ellipse fill="none" stroke="#da5494" cx="630.504" cy="-249.492" rx="4.00002" ry="4.00002"/>
<polygon fill="#da5494" stroke="#da5494" points="535.072,-206.829 527.779,-198.639 530.507,-204.788 525.943,-202.747 525.943,-202.747 525.943,-202.747 530.507,-204.788 524.106,-206.855 535.072,-206.829 535.072,-206.829"/>
</g>
<!-- User&#45;&gt;Content -->
<g id="edge28" class="edge"><title>User&#45;&gt;Content</title>
<path fill="none" stroke="#909a0e" d="M652.147,-291.039C650.977,-300.469 651.817,-310.491 657.719,-318 678.634,-344.613 701.263,-321.23 731.719,-336 743.931,-341.923 755.99,-350.645 766.058,-358.973"/>
<polygon fill="#909a0e" stroke="#909a0e" points="652.154,-291.001 658.479,-282.043 653.108,-286.093 654.062,-281.185 654.062,-281.185 654.062,-281.185 653.108,-286.093 649.644,-280.327 652.154,-291.001 652.154,-291.001"/>
<polygon fill="#909a0e" stroke="#909a0e" points="766.081,-358.993 770.739,-368.921 769.876,-362.249 773.67,-365.506 773.67,-365.506 773.67,-365.506 769.876,-362.249 776.601,-362.091 766.081,-358.993 766.081,-358.993"/>
<text text-anchor="middle" x="711.719" y="-305.4" font-family="Times Roman,serif" font-size="14.00">notify_contents</text>
</g>
<!-- User&#45;&gt;Article -->
<g id="edge30" class="edge"><title>User&#45;&gt;Article</title>
<path fill="none" stroke="#5d267b" d="M647.966,-237.566C645.606,-233.022 643.125,-228.351 640.719,-224 638.874,-220.665 636.891,-217.19 634.899,-213.763"/>
<ellipse fill="none" stroke="#5d267b" cx="649.964" cy="-241.456" rx="4.00002" ry="4.00002"/>
<polygon fill="#5d267b" stroke="#5d267b" points="634.772,-213.548 633.564,-202.648 632.23,-209.242 629.689,-204.936 629.689,-204.936 629.689,-204.936 632.23,-209.242 625.814,-207.223 634.772,-213.548 634.772,-213.548"/>
</g>
<!-- Redirect&#45;&gt;Redirection -->
<g id="edge32" class="edge"><title>Redirect&#45;&gt;Redirection</title>
<path fill="none" stroke="#eaa00e" d="M1111.74,-238.494C1117.99,-230.448 1124.96,-221.474 1131.3,-213.301"/>
<ellipse fill="none" stroke="#eaa00e" cx="1109.15" cy="-241.829" rx="4.00002" ry="4.00002"/>
<polygon fill="#eaa00e" stroke="#eaa00e" points="1131.5,-213.044 1141.19,-207.905 1134.57,-209.095 1137.63,-205.145 1137.63,-205.145 1137.63,-205.145 1134.57,-209.095 1134.08,-202.386 1131.5,-213.044 1131.5,-213.044"/>
</g>
<!-- EmailNotifier -->
<g id="node18" class="node"><title>EmailNotifier</title>
<polygon fill="none" stroke="black" points="1911.72,-281 1807.72,-281 1807.72,-245 1911.72,-245 1911.72,-281"/>
<text text-anchor="middle" x="1859.72" y="-259.4" font-family="Times Roman,serif" font-size="14.00">EmailNotifier</text>
</g>
<!-- WebNotifier -->
<g id="node19" class="node"><title>WebNotifier</title>
<polygon fill="none" stroke="black" points="2027.72,-281 1929.72,-281 1929.72,-245 2027.72,-245 2027.72,-281"/>
<text text-anchor="middle" x="1978.72" y="-259.4" font-family="Times Roman,serif" font-size="14.00">WebNotifier</text>
</g>
<!-- Blog -->
<g id="node20" class="node"><title>Blog</title>
<ellipse fill="none" stroke="black" cx="2095.72" cy="-383" rx="33.234" ry="18.3848"/>
<text text-anchor="middle" x="2095.72" y="-379.4" font-family="Times Roman,serif" font-size="14.00">Blog</text>
</g>
<!-- Sidebar -->
<g id="node21" class="node"><title>Sidebar</title>
<ellipse fill="none" stroke="black" cx="2194.72" cy="-383" rx="48.0833" ry="18.3848"/>
<text text-anchor="middle" x="2194.72" y="-379.4" font-family="Times Roman,serif" font-size="14.00">Sidebar</text>
</g>
<!-- Article&#45;&gt;Resource -->
<g id="edge46" class="edge"><title>Article&#45;&gt;Resource</title>
<path fill="none" stroke="#347bac" d="M599.567,-162.864C589.398,-150.048 576.887,-134.281 566.485,-121.171"/>
<ellipse fill="none" stroke="#347bac" cx="602.157" cy="-166.128" rx="4.00002" ry="4.00002"/>
<polygon fill="#347bac" stroke="#347bac" points="566.215,-120.832 563.525,-110.201 563.107,-116.915 560,-112.998 560,-112.998 560,-112.998 563.107,-116.915 556.474,-115.795 566.215,-120.832 566.215,-120.832"/>
</g>
<!-- Article&#45;&gt;Feedback -->
<g id="edge44" class="edge"><title>Article&#45;&gt;Feedback</title>
<path fill="none" stroke="#4d1808" d="M579.969,-171.425C575.553,-170.076 571.074,-168.888 566.719,-168 528.998,-160.309 247.476,-177.677 220.719,-150 214.04,-143.092 212.457,-133.119 212.995,-123.557"/>
<ellipse fill="none" stroke="#4d1808" cx="584.009" cy="-172.752" rx="4.00001" ry="4.00001"/>
<polygon fill="#4d1808" stroke="#4d1808" points="213.011,-123.427 218.735,-114.073 213.641,-118.467 214.271,-113.507 214.271,-113.507 214.271,-113.507 213.641,-118.467 209.807,-112.94 213.011,-123.427 213.011,-123.427"/>
</g>
<!-- Article&#45;&gt;Feedback -->
<g id="edge56" class="edge"><title>Article&#45;&gt;Feedback</title>
<path fill="none" stroke="#22af03" d="M579.966,-171.442C575.551,-170.089 571.073,-168.897 566.719,-168 531.621,-160.773 274.293,-170.233 244.719,-150 235.629,-143.781 229.79,-133.411 226.064,-123.342"/>
<ellipse fill="none" stroke="#22af03" cx="584.005" cy="-172.77" rx="4.00001" ry="4.00001"/>
<polygon fill="#22af03" stroke="#22af03" points="225.983,-123.082 227.296,-112.195 224.492,-118.309 223.001,-113.537 223.001,-113.537 223.001,-113.537 224.492,-118.309 218.706,-114.879 225.983,-123.082 225.983,-123.082"/>
<text text-anchor="middle" x="311.719" y="-137.4" font-family="Times Roman,serif" font-size="14.00">published_feedback</text>
</g>
<!-- Article&#45;&gt;Trackback -->
<g id="edge42" class="edge"><title>Article&#45;&gt;Trackback</title>
<path fill="none" stroke="#22c6f9" d="M668.262,-180.536C708.29,-172.417 762.183,-154.274 788.719,-114 798.011,-99.8972 798.323,-89.8919 788.719,-76 777.418,-59.6557 732.293,-43.9264 694.29,-33.1472"/>
<ellipse fill="none" stroke="#22c6f9" cx="664.129" cy="-181.325" rx="4.00001" ry="4.00001"/>
<polygon fill="#22c6f9" stroke="#22c6f9" points="693.939,-33.0498 685.504,-26.0425 689.12,-31.7145 684.302,-30.3791 684.302,-30.3791 684.302,-30.3791 689.12,-31.7145 683.1,-34.7156 693.939,-33.0498 693.939,-33.0498"/>
</g>
<!-- Article&#45;&gt;Trackback -->
<g id="edge54" class="edge"><title>Article&#45;&gt;Trackback</title>
<path fill="none" stroke="#cb1062" d="M621.747,-160.225C625.212,-129.587 630.866,-79.5873 634.435,-48.0338"/>
<ellipse fill="none" stroke="#cb1062" cx="621.274" cy="-164.405" rx="4.00001" ry="4.00001"/>
<polygon fill="#cb1062" stroke="#cb1062" points="634.479,-47.6409 640.075,-38.21 635.041,-42.6726 635.603,-37.7042 635.603,-37.7042 635.603,-37.7042 635.041,-42.6726 631.132,-37.1985 634.479,-47.6409 634.479,-47.6409"/>
<text text-anchor="middle" x="705.219" y="-91.4" font-family="Times Roman,serif" font-size="14.00">published_trackbacks</text>
</g>
<!-- Article&#45;&gt;Comment -->
<g id="edge50" class="edge"><title>Article&#45;&gt;Comment</title>
<path fill="none" stroke="#13f26a" d="M580.416,-170.527C551.67,-157.287 512.044,-137.128 480.719,-114 461.504,-99.8134 463.472,-87.8226 442.719,-76 393.874,-48.1743 331.371,-33.7177 284.971,-26.3396"/>
<ellipse fill="none" stroke="#13f26a" cx="584.207" cy="-172.251" rx="4.00002" ry="4.00002"/>
<polygon fill="#13f26a" stroke="#13f26a" points="284.915,-26.3313 275.706,-20.3786 279.972,-25.5793 275.029,-24.8274 275.029,-24.8274 275.029,-24.8274 279.972,-25.5793 274.352,-29.2762 284.915,-26.3313 284.915,-26.3313"/>
</g>
<!-- Article&#45;&gt;Comment -->
<g id="edge52" class="edge"><title>Article&#45;&gt;Comment</title>
<path fill="none" stroke="#f23af6" d="M579.971,-171.418C575.555,-170.07 571.075,-168.885 566.719,-168 445.065,-143.296 90.3011,-209.271 10.7186,-114 -33.4821,-61.0858 77.4793,-36.3053 154.093,-25.7979"/>
<ellipse fill="none" stroke="#f23af6" cx="584.01" cy="-172.744" rx="4.00001" ry="4.00001"/>
<polygon fill="#f23af6" stroke="#f23af6" points="154.274,-25.7742 164.776,-28.9291 159.231,-25.121 164.188,-24.4677 164.188,-24.4677 164.188,-24.4677 159.231,-25.121 163.6,-20.0062 154.274,-25.7742 154.274,-25.7742"/>
<text text-anchor="middle" x="82.7186" y="-91.4" font-family="Times Roman,serif" font-size="14.00">published_comments</text>
</g>
<!-- Article&#45;&gt;Categorization -->
<g id="edge48" class="edge"><title>Article&#45;&gt;Categorization</title>
<path fill="none" stroke="#0c21b5" d="M669.488,-183.401C711.92,-179.097 773.397,-169.805 823.719,-150 837.485,-144.582 838.882,-139.354 851.719,-132 860.875,-126.755 870.862,-121.439 880.428,-116.535"/>
<ellipse fill="none" stroke="#0c21b5" cx="665.246" cy="-183.811" rx="4" ry="4"/>
<polygon fill="#0c21b5" stroke="#0c21b5" points="880.508,-116.494 891.462,-115.99 884.968,-114.235 889.429,-111.975 889.429,-111.975 889.429,-111.975 884.968,-114.235 887.395,-107.961 880.508,-116.494 880.508,-116.494"/>
</g>
<!-- Article&#45;&gt;Trigger -->
<g id="edge38" class="edge"><title>Article&#45;&gt;Trigger</title>
<path fill="none" stroke="#6d71a8" d="M668.28,-180.761C715.08,-174.461 787.082,-163.712 848.719,-150 877.144,-143.676 883.321,-138.447 911.719,-132 958.318,-121.42 971.457,-125.973 1017.72,-114 1021.35,-113.061 1025.08,-111.986 1028.81,-110.835"/>
<ellipse fill="none" stroke="#6d71a8" cx="664.096" cy="-181.318" rx="4.00001" ry="4.00001"/>
<polygon fill="#6d71a8" stroke="#6d71a8" points="1029.07,-110.75 1039.97,-111.935 1033.82,-109.203 1038.58,-107.656 1038.58,-107.656 1038.58,-107.656 1033.82,-109.203 1037.19,-103.377 1029.07,-110.75 1029.07,-110.75"/>
</g>
<!-- Tag -->
<g id="node28" class="node"><title>Tag</title>
<ellipse fill="none" stroke="black" cx="321.719" cy="-95" rx="27.7881" ry="18.3848"/>
<text text-anchor="middle" x="321.719" y="-91.4" font-family="Times Roman,serif" font-size="14.00">Tag</text>
</g>
<!-- Article&#45;&gt;Tag -->
<g id="edge58" class="edge"><title>Article&#45;&gt;Tag</title>
<path fill="none" stroke="#0f4fba" d="M577.762,-171.069C574.06,-169.923 570.342,-168.876 566.719,-168 504.029,-152.836 484.113,-169.768 422.719,-150 396.514,-141.562 369.237,-126.259 349.646,-113.933"/>
<polygon fill="#0f4fba" stroke="#0f4fba" points="577.956,-171.133 586.029,-178.554 582.701,-172.708 587.447,-174.283 587.447,-174.283 587.447,-174.283 582.701,-172.708 588.864,-170.012 577.956,-171.133 577.956,-171.133"/>
<polygon fill="#0f4fba" stroke="#0f4fba" points="349.628,-113.922 343.65,-104.729 345.422,-111.218 341.216,-108.514 341.216,-108.514 341.216,-108.514 345.422,-111.218 338.783,-112.3 349.628,-113.922 349.628,-113.922"/>
</g>
<!-- Ping -->
<g id="node32" class="node"><title>Ping</title>
<ellipse fill="none" stroke="black" cx="400.719" cy="-95" rx="33.234" ry="18.3848"/>
<text text-anchor="middle" x="400.719" y="-91.4" font-family="Times Roman,serif" font-size="14.00">Ping</text>
</g>
<!-- Article&#45;&gt;Ping -->
<g id="edge40" class="edge"><title>Article&#45;&gt;Ping</title>
<path fill="none" stroke="#c1acec" d="M579.514,-171.738C575.233,-170.353 570.909,-169.071 566.719,-168 514.894,-154.755 494.483,-175.968 447.719,-150 435.415,-143.168 424.878,-131.78 416.918,-121.134"/>
<ellipse fill="none" stroke="#c1acec" cx="583.347" cy="-173.036" rx="4.00001" ry="4.00001"/>
<polygon fill="#c1acec" stroke="#c1acec" points="416.851,-121.038 414.784,-110.268 413.976,-116.947 411.102,-112.855 411.102,-112.855 411.102,-112.855 413.976,-116.947 407.42,-115.442 416.851,-121.038 416.851,-121.038"/>
</g>
<!-- NotificationMailer -->
<g id="node24" class="node"><title>NotificationMailer</title>
<polygon fill="none" stroke="black" points="2430.72,-281 2294.72,-281 2294.72,-245 2430.72,-245 2430.72,-281"/>
<text text-anchor="middle" x="2362.72" y="-259.4" font-family="Times Roman,serif" font-size="14.00">NotificationMailer</text>
</g>
<!-- Right -->
<g id="node26" class="node"><title>Right</title>
<ellipse fill="none" stroke="black" cx="2519.72" cy="-383" rx="36.977" ry="18.3848"/>
<text text-anchor="middle" x="2519.72" y="-379.4" font-family="Times Roman,serif" font-size="14.00">Right</text>
</g>
<!-- Profile -->
<g id="node30" class="node"><title>Profile</title>
<ellipse fill="none" stroke="black" cx="2519.72" cy="-263" rx="41.9273" ry="18.3848"/>
<text text-anchor="middle" x="2519.72" y="-259.4" font-family="Times Roman,serif" font-size="14.00">Profile</text>
</g>
<!-- Right&#45;&gt;Profile -->
<g id="edge66" class="edge"><title>Right&#45;&gt;Profile</title>
<path fill="none" stroke="#85e017" d="M2519.72,-354.236C2519.72,-335.315 2519.72,-310.647 2519.72,-291.732"/>
<polygon fill="#85e017" stroke="#85e017" points="2519.72,-354.25 2515.22,-364.25 2519.72,-359.25 2519.72,-364.25 2519.72,-364.25 2519.72,-364.25 2519.72,-359.25 2524.22,-364.25 2519.72,-354.25 2519.72,-354.25"/>
<polygon fill="#85e017" stroke="#85e017" points="2519.72,-291.618 2524.22,-281.618 2519.72,-286.618 2519.72,-281.618 2519.72,-281.618 2519.72,-281.618 2519.72,-286.618 2515.22,-281.618 2519.72,-291.618 2519.72,-291.618"/>
</g>
<!-- Theme -->
<g id="node27" class="node"><title>Theme</title>
<polygon fill="none" stroke="black" points="2638.72,-401 2574.72,-401 2574.72,-365 2638.72,-365 2638.72,-401"/>
<text text-anchor="middle" x="2606.72" y="-379.4" font-family="Times Roman,serif" font-size="14.00">Theme</text>
</g>
<!-- ConfigManager -->
<g id="node29" class="node"><title>ConfigManager</title>
<polygon fill="none" stroke="black" stroke-dasharray="1,5" points="2776.72,-401 2656.72,-401 2656.72,-365 2776.72,-365 2776.72,-401"/>
<text text-anchor="middle" x="2716.72" y="-379.4" font-family="Times Roman,serif" font-size="14.00">ConfigManager</text>
</g>
<!-- PageCache -->
<g id="node31" class="node"><title>PageCache</title>
<polygon fill="none" stroke="black" points="2886.72,-401 2794.72,-401 2794.72,-365 2886.72,-365 2886.72,-401"/>
<text text-anchor="middle" x="2840.72" y="-379.4" font-family="Times Roman,serif" font-size="14.00">PageCache</text>
</g>
<!-- ActionController::Caching::Sweeper -->
<g id="node44" class="node"><title>ActionController::Caching::Sweeper</title>
<ellipse fill="none" stroke="black" cx="1588.72" cy="-383" rx="185.969" ry="18.3848"/>
<text text-anchor="middle" x="1588.72" y="-379.4" font-family="Times Roman,serif" font-size="14.00">ActionController::Caching::Sweeper</text>
</g>
<!-- ActionController::Caching::Sweeper&#45;&gt;BlogSweeper -->
<g id="edge24" class="edge"><title>ActionController::Caching::Sweeper&#45;&gt;BlogSweeper</title>
<path fill="none" stroke="black" d="M1588.72,-364.25C1588.72,-341.574 1588.72,-303.663 1588.72,-281.225"/>
</g>
<!-- ActiveRecord::Observer -->
<g id="node50" class="node"><title>ActiveRecord::Observer</title>
<ellipse fill="none" stroke="black" cx="1918.72" cy="-383" rx="125.865" ry="18.3848"/>
<text text-anchor="middle" x="1918.72" y="-379.4" font-family="Times Roman,serif" font-size="14.00">ActiveRecord::Observer</text>
</g>
<!-- ActiveRecord::Observer&#45;&gt;EmailNotifier -->
<g id="edge34" class="edge"><title>ActiveRecord::Observer&#45;&gt;EmailNotifier</title>
<path fill="none" stroke="black" d="M1909.63,-364.513C1898.51,-341.897 1879.8,-303.847 1868.72,-281.311"/>
</g>
<!-- ActiveRecord::Observer&#45;&gt;WebNotifier -->
<g id="edge36" class="edge"><title>ActiveRecord::Observer&#45;&gt;WebNotifier</title>
<path fill="none" stroke="black" d="M1927.96,-364.513C1939.27,-341.897 1958.3,-303.847 1969.56,-281.311"/>
</g>
<!-- ActionMailer::Base -->
<g id="node66" class="node"><title>ActionMailer::Base</title>
<ellipse fill="none" stroke="black" cx="2362.72" cy="-383" rx="101.823" ry="18.3848"/>
<text text-anchor="middle" x="2362.72" y="-379.4" font-family="Times Roman,serif" font-size="14.00">ActionMailer::Base</text>
</g>
<!-- ActionMailer::Base&#45;&gt;NotificationMailer -->
<g id="edge64" class="edge"><title>ActionMailer::Base&#45;&gt;NotificationMailer</title>
<path fill="none" stroke="black" d="M2362.72,-364.25C2362.72,-341.574 2362.72,-303.663 2362.72,-281.225"/>
</g>
</g>
</svg>
